<svg width="65" height="64" viewBox="0 0 65 64" fill="none" xmlns="http://www.w3.org/2000/svg">
<g clip-path="url(#clip0_2_2399)">
<path fill-rule="evenodd" clip-rule="evenodd" d="M17.6722 34.2404H53.249L47.3767 56.3052H47.2623C47.2623 59.4777 41.7333 62.05 34.9077 62.05C28.7304 62.05 23.6208 59.935 22.7056 57.1912C22.6293 57.0197 22.515 56.5338 22.4387 56.2766L17.6722 34.2404Z" fill="#CAD5DD"/>
<path fill-rule="evenodd" clip-rule="evenodd" d="M17.6722 34.2404H53.249L48.1012 53.6185H48.025C48.025 53.7614 48.025 53.9043 47.9868 54.0758L47.8343 54.7046C46.7666 57.5627 41.3519 59.7635 34.9077 59.7635C28.8448 59.7635 23.7733 57.8486 22.248 55.2762L17.6722 34.2404Z" fill="#CAD5DD"/>
<path fill-rule="evenodd" clip-rule="evenodd" d="M52.7588 36.1267L47.3822 56.3051C47.3059 56.5337 47.3059 56.791 47.2297 57.0482C46.4289 59.8777 41.2049 62.0785 34.9132 62.0785C31.672 62.0785 28.7359 61.5069 26.5242 60.5637C26.3336 60.1064 26.2573 59.6205 26.2954 59.1346H26.181L23.1686 36.1267H52.7588Z" fill="#D7DFE2"/>
<path fill-rule="evenodd" clip-rule="evenodd" d="M52.7577 36.1267L48.1057 53.6184L47.9913 54.0471L47.8388 54.6759C46.7329 57.5341 41.3564 59.7062 34.9122 59.7062C31.5184 59.7062 28.4298 59.106 26.1038 58.1343L23.2439 36.1267H52.7577Z" fill="#D7DFE2"/>
<path fill-rule="evenodd" clip-rule="evenodd" d="M48.6366 36.1267L44.671 59.8777C42.4212 61.2211 38.9131 62.0785 34.9474 62.0785C33.1171 62.0785 31.4012 61.907 29.8378 61.564L28.3125 36.6411L34.1466 36.1553H48.6366V36.1267Z" fill="#CD8C5D"/>
<path fill-rule="evenodd" clip-rule="evenodd" d="M48.6366 36.1267L44.671 59.8777C42.4212 61.2211 38.9131 62.0785 34.9474 62.0785C33.1171 62.0785 31.4012 61.907 29.8378 61.564L28.3125 36.6411L34.1466 36.1553H48.6366V36.1267Z" fill="#F4F4F7"/>
<path fill-rule="evenodd" clip-rule="evenodd" d="M48.6366 36.1267L45.0523 57.5055C42.65 58.8774 38.9893 59.7348 34.9093 59.7348C33.0408 59.7348 31.2868 59.5633 29.6852 59.2204L28.3125 36.6126L34.1466 36.1267H48.6366Z" fill="#EAECED"/>
<path fill-rule="evenodd" clip-rule="evenodd" d="M49.1021 34.2404L45.0983 57.477C42.696 58.8489 38.9972 59.7349 34.879 59.7349C31.3709 59.7349 28.1678 59.1061 25.8037 58.0486L22.8676 34.2404H49.1021Z" fill="#F2AD01"/>
<path fill-rule="evenodd" clip-rule="evenodd" d="M45.0523 57.5055C42.65 58.8774 38.9893 59.7348 34.9093 59.7348C33.0408 59.7348 31.2868 59.5633 29.6852 59.2204L28.3125 36.6126L34.1466 36.1267H48.6366L45.0523 57.5055Z" fill="#FFCB05"/>
<path fill-rule="evenodd" clip-rule="evenodd" d="M49.1021 34.2404L45.5559 54.8189C42.9629 56.248 39.1116 57.134 34.8027 57.134C31.2565 57.134 27.9772 56.5052 25.4986 55.5049L22.8676 34.2404H49.1021Z" fill="#DA242C"/>
<path fill-rule="evenodd" clip-rule="evenodd" d="M45.4717 54.876C42.8788 56.2765 39.0656 57.1625 34.7949 57.1625C32.9264 57.1625 31.1343 56.9911 29.4946 56.6767L28.2744 36.6412L34.1085 36.1553H48.5985L45.4717 54.876Z" fill="#ED1C24"/>
<path fill-rule="evenodd" clip-rule="evenodd" d="M36.0182 43.1577L36.7427 44.8442H39.1068L37.2003 45.9018L37.9248 47.5883L36.0182 46.5307L34.0735 47.5883L34.8361 45.9018L32.8914 44.8442H35.2937L36.0182 43.1577Z" fill="#FFCB05"/>
<path d="M29.1514 53.8477C28.9226 53.7905 28.7319 53.7048 28.5794 53.5905C28.4269 53.4761 28.3125 53.3046 28.2362 53.1331C28.1599 52.933 28.1218 52.7043 28.1218 52.4471C28.1218 52.2756 28.1599 52.0755 28.1981 51.8754C28.2362 51.6753 28.3125 51.4466 28.3887 51.218C28.465 50.9893 28.5794 50.7606 28.6938 50.5319C28.8082 50.3033 28.9607 50.0746 29.1132 49.8745L29.037 48.4739C28.9988 48.5311 28.9226 48.5596 28.8844 48.6168C28.6175 48.8455 28.3887 49.0742 28.1599 49.3314C27.9311 49.5887 27.7405 49.8459 27.5498 50.1032C27.3592 50.3604 27.2066 50.6463 27.0923 50.9035C26.9779 51.1608 26.8635 51.4466 26.8253 51.7039C26.7491 51.9612 26.7109 52.1898 26.7109 52.4185C26.7109 52.7329 26.7872 53.0474 26.9016 53.3618C27.0541 53.6476 27.2448 53.9049 27.4736 54.1336C27.7024 54.3622 28.0074 54.5337 28.3887 54.6481C28.6938 54.7624 29.037 54.791 29.4183 54.791L29.3802 53.9049C29.2658 53.8477 29.1895 53.8477 29.1514 53.8477Z" fill="#EAECED"/>
<path d="M30.2215 48.6744C30.4122 48.5314 30.641 48.3885 30.8697 48.3028C31.0985 48.1884 31.3273 48.1313 31.5561 48.1027C31.7468 48.0741 31.9374 48.0741 32.0518 48.1027C32.2044 48.1313 32.3187 48.1598 32.395 48.2456C32.4713 48.3028 32.5475 48.3885 32.5857 48.4743C32.6238 48.56 32.6619 48.6744 32.6619 48.7887C32.6619 48.9888 32.6238 49.1889 32.5094 49.389C32.395 49.5891 32.2425 49.732 32.09 49.9035C31.9374 50.0464 31.7086 50.1607 31.518 50.2751C31.2892 50.3608 31.0985 50.418 30.8697 50.4466C30.7935 50.4466 30.7172 50.4466 30.6791 50.4466C30.641 50.4466 30.6028 50.4466 30.5647 50.418C30.5266 50.418 30.4884 50.418 30.4503 50.3894C30.4122 50.3894 30.374 50.3894 30.3359 50.3894C30.2596 50.3894 30.2215 50.418 30.1834 50.4466C30.1452 50.4752 30.1071 50.5037 30.1071 50.5609C30.1071 50.5895 30.069 50.6467 30.069 50.7038C30.069 50.761 30.069 50.7896 30.069 50.8468C30.069 50.8753 30.069 50.9039 30.069 50.9325C30.069 50.9611 30.069 50.9897 30.069 50.9897C30.069 51.104 30.1452 51.1898 30.2978 51.2184C30.4503 51.2755 30.6791 51.2755 30.946 51.2469C31.1748 51.2184 31.4036 51.1612 31.6324 51.0754C31.8612 50.9897 32.09 50.8753 32.2806 50.7324C32.4713 50.5895 32.7001 50.4466 32.8526 50.2465C33.0432 50.075 33.1958 49.8749 33.3102 49.7034C33.4246 49.5033 33.539 49.3032 33.6152 49.1031C33.6915 48.903 33.7296 48.7029 33.7296 48.5314C33.7296 48.2742 33.6534 48.0455 33.539 47.874C33.4246 47.7025 33.272 47.5596 33.0814 47.4738C32.8907 47.3881 32.6619 47.3023 32.4331 47.2737C32.2044 47.2451 31.9374 47.2451 31.7086 47.2737C31.3655 47.3309 30.9841 47.4167 30.6791 47.531C30.3359 47.6453 30.0308 47.8168 29.7258 47.9883C29.497 48.1313 29.2682 48.2742 29.0394 48.4457L29.1157 49.8463C29.2682 49.6176 29.4589 49.4175 29.6114 49.2175C29.8021 49.0174 29.9927 48.8459 30.2215 48.6744Z" fill="#F4F4F7"/>
<path d="M45.8919 48.1023C45.7394 48.331 45.5869 48.5596 45.3962 48.7597C45.3199 48.8454 45.2437 48.9312 45.1674 49.0169C45.0912 49.1027 45.0149 49.1884 44.9386 49.2456C44.8624 49.3313 44.7861 49.3885 44.7098 49.4456C44.6336 49.5028 44.5573 49.5314 44.4811 49.56C44.4048 49.5885 44.3285 49.5885 44.2904 49.5314C44.2523 49.4742 44.2523 49.3885 44.2523 49.2741C44.2523 49.1312 44.2904 48.9597 44.3285 48.7597C44.3667 48.5596 44.4429 48.3595 44.4811 48.1881C44.5192 48.0166 44.5573 47.8737 44.5954 47.7022C44.6336 47.5593 44.6336 47.4164 44.6336 47.302C44.6336 47.2163 44.6336 47.1591 44.5954 47.1305C44.5954 47.102 44.5573 47.0734 44.5192 47.0448C44.4811 47.0448 44.4429 47.0448 44.4048 47.0448C44.3667 47.0448 44.3285 47.0734 44.2523 47.102C44.2141 47.1305 44.176 47.1305 44.1379 47.1591C44.0997 47.1877 44.0616 47.1877 44.0235 47.2163C43.9853 47.2449 43.9472 47.2449 43.9091 47.2734C43.8709 47.2734 43.8328 47.302 43.7947 47.302C43.7566 47.302 43.7184 47.302 43.6803 47.2734C43.6422 47.2449 43.6422 47.2449 43.604 47.2163C43.5659 47.1877 43.5278 47.1877 43.4896 47.1877C43.4515 47.1877 43.3752 47.1877 43.299 47.2163C43.0702 47.302 42.8414 47.4164 42.6507 47.5878C42.4219 47.7308 42.2313 47.9022 42.0406 48.1023C42.0025 48.1309 41.9644 48.1881 41.9262 48.2166C41.7737 48.3881 41.6212 48.531 41.5068 48.7311C41.4305 48.8168 41.3924 48.9026 41.3161 49.0169C41.2399 49.1598 41.1255 49.3027 41.0492 49.4742C40.9348 49.7029 40.8586 49.9029 40.7823 50.0744C40.7823 50.1316 40.7442 50.1602 40.7442 50.2173C40.706 50.3888 40.6679 50.5317 40.6679 50.7032C40.6298 50.7318 40.5535 50.7889 40.5154 50.8175C40.401 50.9033 40.3247 50.9604 40.2484 51.0176L40.2103 51.0462C40.1341 51.1033 40.0578 51.1319 39.9815 51.1891C39.9053 51.2463 39.829 51.2748 39.7527 51.2748C39.7146 51.2748 39.7146 51.2748 39.6765 51.2462C39.6383 51.2177 39.6383 51.1891 39.6002 51.1605C39.5621 51.1319 39.5621 51.0748 39.5239 51.0176C39.5239 50.9604 39.4858 50.9033 39.4858 50.8461C39.4858 50.8175 39.4858 50.8175 39.4858 50.7889C39.4858 50.7318 39.5239 50.6746 39.5239 50.6175C39.5239 50.5603 39.5621 50.5031 39.5621 50.446C39.5621 50.3888 39.6002 50.3602 39.6002 50.3031C39.6002 50.2459 39.6383 50.2173 39.6383 50.1887C39.7909 49.9315 39.9434 49.6457 40.1341 49.3599V49.3313C40.2866 49.0455 40.4772 48.7597 40.6298 48.4739L40.7442 48.3024C40.8967 48.0737 41.0111 47.8165 41.1636 47.5878C41.2017 47.5021 41.2399 47.4164 41.3161 47.3306C41.4305 47.1305 41.5068 46.9305 41.6212 46.7304C41.7356 46.4446 41.85 46.1588 41.9262 45.9016C41.9262 45.8444 41.9644 45.7872 41.9644 45.7301C42.0025 45.53 42.0406 45.3299 42.0406 45.1584C42.0406 45.0727 42.0406 44.987 42.0025 44.9012C42.0025 44.8726 41.9644 44.844 41.9644 44.8155C41.9262 44.7869 41.9262 44.7297 41.8881 44.7011C41.85 44.644 41.7356 44.6154 41.6593 44.6154C41.5831 44.6154 41.4687 44.6154 41.3543 44.644C41.3161 44.644 41.3161 44.644 41.278 44.6726C41.1255 44.7297 40.9729 44.8155 40.7823 44.9012C40.7442 44.9298 40.706 44.9584 40.6679 44.9869C40.5154 45.1013 40.3247 45.2728 40.1722 45.4442C40.1341 45.4728 40.0959 45.5014 40.0959 45.5586C39.9053 45.7586 39.7527 46.0159 39.5621 46.2731C39.4096 46.5303 39.257 46.8162 39.1045 47.0734C38.952 47.3592 38.7994 47.7308 38.6851 48.1595L38.6088 48.4167C38.5325 48.6739 38.4944 48.8168 38.4944 48.8168C38.4944 48.8168 38.4563 49.0169 38.3419 49.4456C38.3419 49.5028 38.3037 49.5885 38.3037 49.6457C38.1512 49.56 37.9987 49.5028 37.808 49.4456C37.5792 49.3885 37.3123 49.3599 37.0454 49.3313C36.7785 49.3313 36.4734 49.3599 36.1684 49.417C36.0158 49.4456 35.8633 49.5028 35.7108 49.56C35.5201 49.6171 35.3676 49.7029 35.1769 49.7886C34.8719 49.9601 34.6431 50.1316 34.4524 50.3316C34.4143 50.3888 34.3381 50.446 34.2999 50.5031C34.1855 50.6746 34.0711 50.8461 33.9949 51.0176C33.8805 51.2748 33.8423 51.5321 33.8423 51.8465C33.6136 51.9894 33.3848 52.1323 33.1941 52.3038C32.9272 52.4752 32.6984 52.6467 32.4315 52.8468C32.1646 53.0183 31.9358 53.1898 31.6307 53.3327C31.3638 53.4756 31.0969 53.5899 30.7918 53.7042C30.4868 53.79 30.1817 53.8757 29.8385 53.9043C29.6479 53.9329 29.4572 53.9043 29.3047 53.9043L29.3428 54.7903C29.381 54.7903 29.4572 54.7903 29.4953 54.7903C29.8767 54.7617 30.258 54.7046 30.563 54.6474C30.9062 54.5617 31.1731 54.4759 31.4782 54.3902C31.7451 54.2759 32.012 54.1901 32.2027 54.0472C32.4315 53.9329 32.6221 53.79 32.8128 53.6757C33.0035 53.5613 33.1941 53.4184 33.3466 53.2755C33.4992 53.1326 33.6517 52.9897 33.8042 52.8754C33.8423 52.8182 33.9186 52.7896 33.9567 52.7325C33.9949 52.8182 34.0711 52.904 34.1474 52.9897C34.1855 53.0183 34.2237 53.0469 34.2618 53.0754C34.3762 53.1612 34.5287 53.2184 34.6812 53.2755C34.8719 53.3327 35.1388 53.3327 35.4057 53.2755C35.482 53.2469 35.5964 53.2469 35.6727 53.1898C35.7871 53.1612 35.8633 53.104 35.9777 53.0754C36.1684 52.9897 36.3209 52.8754 36.4734 52.7611C36.6259 52.6467 36.7403 52.5038 36.8547 52.3609C36.9691 52.218 37.0835 52.0751 37.1598 51.9036C37.2361 51.7607 37.3123 51.5892 37.3504 51.4463C37.3886 51.2748 37.4267 51.1319 37.4267 50.989C37.4267 50.7889 37.3886 50.6175 37.3504 50.4746C37.3123 50.3316 37.2361 50.1887 37.1217 50.0744C37.1217 50.0458 37.1598 50.0458 37.1598 50.0173C37.2742 50.0458 37.4267 50.0744 37.5792 50.1316C37.7318 50.1887 37.9224 50.2459 38.0749 50.3316C38.1131 50.3602 38.1512 50.3602 38.1893 50.3888C38.1893 50.446 38.1893 50.5031 38.1893 50.5317C38.1893 50.8175 38.2275 51.0748 38.3037 51.3034C38.38 51.5321 38.4563 51.7321 38.5707 51.9036C38.5707 51.9322 38.6088 51.9608 38.6088 51.9894C38.7232 52.1037 38.8376 52.218 38.952 52.2752C39.1045 52.3609 39.257 52.3609 39.4477 52.3038C39.5621 52.2752 39.6765 52.218 39.829 52.1609C39.9434 52.1037 40.0959 52.0179 40.2103 51.9608C40.3628 51.875 40.4772 51.7893 40.6298 51.7035C40.706 51.6464 40.7823 51.6178 40.8204 51.5606C40.8586 51.5321 40.8967 51.5035 40.9348 51.4749C40.9729 51.5035 41.0111 51.5321 41.0492 51.5321C41.1255 51.5892 41.2399 51.5892 41.3543 51.6178C41.3924 51.6178 41.3924 51.6178 41.4305 51.6178C41.5831 51.6178 41.7356 51.5892 41.8881 51.5321C41.9262 51.5321 41.9644 51.5035 41.9644 51.5035C42.0788 51.4463 42.1932 51.3892 42.3076 51.332C42.4601 51.2463 42.6126 51.1319 42.727 51.0462C42.8795 50.9319 42.9939 50.8175 43.1083 50.7032C43.2227 50.5889 43.3371 50.4746 43.4134 50.3888C43.5278 50.5317 43.6422 50.646 43.7947 50.6746C43.9472 50.7318 44.1379 50.7032 44.3285 50.6175C44.5192 50.5317 44.6717 50.446 44.8624 50.3031C45.053 50.1602 45.2056 49.9887 45.3581 49.8458C45.5106 49.6743 45.6631 49.5028 45.7775 49.3599C45.8919 49.1884 46.0063 49.0455 46.0826 48.9312C46.0826 48.5882 46.0063 48.331 45.8919 48.1023ZM36.4734 51.3606C36.4353 51.5606 36.359 51.7321 36.2828 51.875C36.2065 52.0179 36.1302 52.1609 36.0158 52.2466C35.9396 52.3323 35.8633 52.3895 35.7871 52.4181C35.7489 52.4181 35.7489 52.4467 35.7108 52.4467C35.5964 52.4752 35.482 52.4752 35.3676 52.4467C35.2913 52.4181 35.2151 52.3895 35.1388 52.3323C35.1007 52.2752 35.0244 52.218 35.0244 52.1323C34.9863 52.0465 34.9863 51.9608 34.9863 51.8465C34.9863 51.6464 35.0244 51.4463 35.0626 51.2748C35.1007 51.1033 35.1769 50.9319 35.2913 50.7889C35.3676 50.646 35.482 50.5031 35.5964 50.3888C35.6345 50.3316 35.7108 50.3031 35.7489 50.2745C35.8252 50.2459 35.9014 50.2173 35.9396 50.1887C36.054 50.1602 36.1302 50.1602 36.2065 50.1887C36.2828 50.2173 36.3209 50.2459 36.3972 50.3316C36.4353 50.3888 36.4734 50.4746 36.5116 50.5603C36.5497 50.646 36.5497 50.7604 36.5497 50.8747C36.5497 50.989 36.5116 51.1605 36.4734 51.3606ZM39.6383 48.3881C39.7146 48.0451 39.7527 47.8451 39.7527 47.8451C39.7527 47.8451 39.829 47.645 39.9815 47.2449C40.0578 46.9876 40.1722 46.759 40.2484 46.5875C40.2866 46.5018 40.3247 46.416 40.3628 46.3588C40.4772 46.1588 40.5535 46.0159 40.6679 45.873C40.7442 45.7872 40.7823 45.7301 40.8586 45.7015C40.8967 45.6729 40.9348 45.6729 40.9729 45.6443C41.0111 45.6443 41.0111 45.6443 41.0111 45.7015C41.0111 45.7586 41.0111 45.8158 41.0111 45.873C41.0111 46.073 40.9348 46.2731 40.8586 46.5018C40.8586 46.5589 40.8204 46.6161 40.7823 46.6732C40.6679 46.9591 40.5535 47.2735 40.401 47.5878C40.3628 47.7022 40.2866 47.8165 40.2103 47.9308C40.1341 48.1309 40.0197 48.3024 39.9053 48.4739C39.7527 48.7597 39.6002 49.0455 39.4477 49.2741C39.5239 49.0455 39.5621 48.7311 39.6383 48.3881ZM43.1846 49.2456C43.1464 49.3313 43.1464 49.4456 43.1083 49.56C43.0702 49.7029 42.9939 49.8458 42.9177 49.9601C42.8414 50.103 42.7651 50.2173 42.6507 50.3316C42.5363 50.446 42.4601 50.5317 42.3076 50.5603C42.2313 50.5889 42.155 50.5889 42.1169 50.5889C42.0788 50.5889 42.0406 50.5603 42.0025 50.5031C41.9644 50.4746 41.9644 50.4174 41.9644 50.3888C41.9644 50.3316 41.9644 50.2745 41.9644 50.2173C41.9644 50.103 42.0025 49.9887 42.0406 49.8458V49.8172C42.0788 49.7029 42.155 49.5314 42.2313 49.3599C42.3076 49.1598 42.4219 48.9883 42.4982 48.8454C42.5745 48.7025 42.6889 48.5596 42.8033 48.4453C42.9177 48.331 43.0321 48.2166 43.1464 48.1023C43.2608 48.0166 43.4134 47.9308 43.5278 47.8737C43.4134 48.3595 43.299 48.7883 43.1846 49.2456Z" fill="#F4F4F7"/>
<path fill-rule="evenodd" clip-rule="evenodd" d="M17.6722 34.2404H53.249L52.5245 36.9273C49.0545 39.6428 42.6866 41.4436 35.4416 41.4436C28.1203 41.4436 21.7523 39.6142 18.2442 36.8988L17.6722 34.2404Z" fill="#B6C3CC"/>
<path fill-rule="evenodd" clip-rule="evenodd" d="M49.103 34.3261L48.226 39.3569C44.756 40.7004 40.2946 41.5293 35.4138 41.5293C30.9905 41.5293 26.8723 40.8433 23.5549 39.6999L22.9066 34.3261H49.103Z" fill="#C8252F"/>
<path fill-rule="evenodd" clip-rule="evenodd" d="M54.2373 1.91495C55.9151 0.600208 53.3984 -0.657368 52.1019 0.371558L39.7854 9.97487L41.9208 11.5183L54.2373 1.91495Z" fill="#F8BB33"/>
<path fill-rule="evenodd" clip-rule="evenodd" d="M35.4809 21.0072C44.4418 21.0072 52.0682 23.7796 54.5848 27.5523H55.4237V29.5816C55.4619 29.8103 55.5 30.0675 55.5 30.2961C55.5 35.4408 46.5391 39.5851 35.5191 39.5851C24.499 39.5851 15.5 35.4122 15.5 30.2961V27.5523H16.377C18.8937 23.751 26.4819 21.0072 35.4809 21.0072Z" fill="#CAD5DD"/>
<path fill-rule="evenodd" clip-rule="evenodd" d="M55.3856 29.8675V30.1247C55.3856 30.1819 55.3856 30.2105 55.4238 30.2677C54.7755 35.127 46.1197 38.9858 35.481 38.9858C24.4609 39.0144 15.5 34.8411 15.5 29.696C15.5 29.6102 15.5 29.4959 15.5 29.4101C15.8051 34.4124 24.6135 38.4427 35.4428 38.4427C45.9671 38.4427 54.5849 34.6696 55.3856 29.8675Z" fill="#A2B3BC"/>
<path fill-rule="evenodd" clip-rule="evenodd" d="M35.4809 36.1267C46.4628 36.1267 55.4619 31.9538 55.4619 26.8378C55.4619 21.7217 46.501 17.5489 35.4809 17.5489C24.4609 17.5489 15.5 21.7217 15.5 26.8378C15.5 31.9538 24.4609 36.1267 35.4809 36.1267Z" fill="url(#paint0_linear_2_2399)"/>
<path fill-rule="evenodd" clip-rule="evenodd" d="M35.4849 18.1777C45.7423 18.1777 54.0932 22.0648 54.0932 26.8378C54.0932 31.6109 45.7423 35.498 35.4849 35.498V34.9549C45.0941 34.9549 52.9111 31.3251 52.9111 26.8378C52.9111 22.3506 45.0941 18.7208 35.4849 18.7208V18.1777ZM35.4849 35.498C25.2275 35.498 16.8767 31.6109 16.8767 26.8378C16.8767 22.0648 25.2275 18.1777 35.4849 18.1777V18.7208C25.8758 18.7208 18.0588 22.3506 18.0588 26.8378C18.0588 31.3251 25.8758 34.9549 35.4849 34.9549V35.498Z" fill="#CAD5DD"/>
<path fill-rule="evenodd" clip-rule="evenodd" d="M35.4791 33.0685C42.8766 33.0685 48.9014 30.2676 48.9014 26.8378C48.9014 23.4081 42.8766 20.6071 35.4791 20.6071C28.0816 20.6071 22.0568 23.4081 22.0568 26.8378C22.0568 30.2676 28.0816 33.0685 35.4791 33.0685Z" fill="#CAD5DD"/>
<path fill-rule="evenodd" clip-rule="evenodd" d="M35.4781 22.1791C42.3037 22.1791 47.9471 24.5513 48.786 27.6095C47.9471 30.6677 42.3037 33.04 35.4781 33.04C28.6525 33.04 23.0091 30.6677 22.1702 27.6095C23.0091 24.5513 28.6525 22.1791 35.4781 22.1791Z" fill="#EAECED"/>
<path fill-rule="evenodd" clip-rule="evenodd" d="M35.4771 31.7832C40.0529 31.7832 43.7898 30.0395 43.7898 27.9243C43.7898 25.7805 40.0529 24.0654 35.4771 24.0654C30.9013 24.0654 27.1644 25.8091 27.1644 27.9243C27.1644 30.0395 30.9013 31.7832 35.4771 31.7832Z" fill="#CAD5DD"/>
<path fill-rule="evenodd" clip-rule="evenodd" d="M35.4771 30.6971C40.0529 30.6971 43.7898 28.9534 43.7898 26.8382C43.7898 24.6944 40.0529 22.9793 35.4771 22.9793C30.9013 22.9793 27.1644 24.723 27.1644 26.8382C27.1644 28.9534 30.9013 30.6971 35.4771 30.6971Z" fill="url(#paint1_linear_2_2399)"/>
<path fill-rule="evenodd" clip-rule="evenodd" d="M35.6289 27.8955C36.8873 27.8955 37.8787 27.4382 37.8787 26.8379C37.8787 26.2662 36.8492 25.7803 35.6289 25.7803C34.3706 25.7803 33.3792 26.2376 33.3792 26.8379C33.3792 27.4382 34.3706 27.8955 35.6289 27.8955Z" fill="#98ABB6"/>
<path fill-rule="evenodd" clip-rule="evenodd" d="M42.4665 10.9476C42.9241 9.51851 40.0261 9.14695 39.5685 10.3759L34.0394 27.5819C35.0309 28.0106 36.0604 28.0106 37.09 27.6676L42.4665 10.9476Z" fill="url(#paint2_linear_2_2399)"/>
</g>
<defs>
<linearGradient id="paint0_linear_2_2399" x1="35.4696" y1="17.5389" x2="35.4696" y2="36.1291" gradientUnits="userSpaceOnUse">
<stop stop-color="#F4F4F7"/>
<stop offset="1" stop-color="white"/>
</linearGradient>
<linearGradient id="paint1_linear_2_2399" x1="35.4658" y1="22.9635" x2="35.4658" y2="30.7058" gradientUnits="userSpaceOnUse">
<stop stop-color="#F4F4F7"/>
<stop offset="1" stop-color="white"/>
</linearGradient>
<linearGradient id="paint2_linear_2_2399" x1="57.9323" y1="-1.27287" x2="31.0962" y2="48.0063" gradientUnits="userSpaceOnUse">
<stop stop-color="#F18C2C"/>
<stop offset="1" stop-color="#E02F2B"/>
</linearGradient>
<clipPath id="clip0_2_2399">
<rect width="64" height="64" fill="white" transform="translate(0.5)"/>
</clipPath>
</defs>
</svg>
